PathFileType	4	(X/Y/Z)	S:\OneDrive - The University of Tokyo\ìåëÂéˆã∆\ÉoÉCÉÅÉJ\ë™íË\hirabayashi_2\Trimmed\Trimmed_BarL40kg1.trc
DataRate	CameraRate	NumFrames	NumMarkers	Units	OrigDataRate	OrigDataStartFrame	OrigNumFrames
200.00	200.00	       26	12	mm	200.00	1	       150
Frame#	Time	BarR0			BarR50			BarR100			BarR130			BarR180			BarR230			BarL0			BarL50			BarL100			BarL130			BarL180			BarL230			
		X1	Y1	Z1	X2	Y2	Z2	X3	Y3	Z3	X4	Y4	Z4	X5	Y5	Z5	X6	Y6	Z6	X7	Y7	Z7	X8	Y8	Z8	X9	Y9	Z9	X10	Y10	Z10	X11	Y11	Z11	X12	Y12	Z12	

1	0.000	-575.92694	2755.37549	1664.42725	-604.84802	2306.17944	1662.34814	-637.29077	1851.80005	1661.99243	-660.77307	1349.39246	1661.92761	-690.06799	902.68988	1662.70520	-713.82404	454.64246	1664.04419	-1113.34070	2807.24780	1664.60840	-1140.56580	2355.66284	1658.46472	-1171.17920	1905.53625	1653.15906	-1198.53149	1404.11169	1653.04041	-1226.97009	952.72089	1658.77124	-1244.50818	506.91544	1667.45801	
2	0.005	-575.93530	2755.37329	1664.42542	-604.76691	2306.17505	1662.31738	-637.31122	1851.80237	1661.99573	-660.77124	1349.41235	1661.93420	-690.05573	902.69849	1662.69678	-713.79633	454.64539	1664.04712	-1113.29492	2807.26636	1664.61243	-1140.54980	2355.66382	1658.48596	-1171.16260	1905.54688	1653.16187	-1198.53027	1404.12830	1653.03674	-1226.96289	952.70758	1658.78772	-1244.51233	506.89539	1667.44849	
3	0.010	-575.93195	2755.37500	1664.44531	-604.82605	2306.17261	1662.34595	-637.31531	1851.79260	1662.01904	-660.77991	1349.39575	1661.93616	-690.07794	902.70520	1662.69263	-713.82782	454.65039	1664.04077	-1113.31250	2807.26221	1664.61316	-1140.57141	2355.64453	1658.46912	-1171.17761	1905.54541	1653.15540	-1198.53857	1404.12793	1653.03601	-1226.99390	952.72656	1658.79150	-1244.49414	506.89221	1667.45496	
4	0.015	-575.92975	2755.37329	1664.44617	-604.78888	2306.14185	1662.32324	-637.30768	1851.78882	1661.99658	-660.77728	1349.37146	1661.93774	-690.06647	902.68512	1662.67834	-713.80463	454.65421	1664.03809	-1113.30188	2807.27466	1664.62158	-1140.56921	2355.66064	1658.47290	-1171.17249	1905.53882	1653.15747	-1198.54565	1404.11670	1653.04309	-1226.98621	952.72095	1658.78186	-1244.50562	506.92072	1667.43030	
5	0.020	-575.94611	2755.37769	1664.41980	-604.80054	2306.17236	1662.32849	-637.30530	1851.81519	1662.00378	-660.79547	1349.26282	1661.94080	-690.06451	902.71277	1662.69690	-713.80286	454.62509	1664.04236	-1113.32898	2807.26929	1664.60974	-1140.55518	2355.65527	1658.46460	-1171.15234	1905.53040	1653.15332	-1198.46497	1404.48523	1652.45459	-1226.98584	952.70508	1658.77600	-1244.50378	506.90317	1667.43726	
6	0.025	-575.92603	2755.37158	1664.45020	-604.80579	2306.16455	1662.31702	-637.27893	1851.82617	1661.98669	-660.77100	1349.37354	1661.92798	-690.08008	902.71741	1662.68958	-713.81366	454.63132	1664.03687	-1113.30640	2807.26758	1664.60278	-1140.55444	2355.66577	1658.46692	-1171.17090	1905.50256	1653.15344	-1198.53418	1404.14807	1653.03259	-1226.98914	952.72162	1658.77319	-1244.51160	506.90988	1667.46277	
7	0.030	-575.92639	2755.37573	1664.44043	-604.81677	2306.19507	1662.35059	-637.32697	1851.81018	1661.99023	-660.78564	1349.39368	1661.92822	-690.07367	902.71356	1662.69934	-713.82800	454.65732	1664.05090	-1113.31384	2807.26807	1664.61694	-1140.54492	2355.66504	1658.47388	-1171.16589	1905.53992	1653.15356	-1198.54688	1404.14038	1653.02051	-1226.98682	952.70819	1658.77319	-1244.51819	506.92383	1667.45691	
8	0.035	-575.92139	2755.35791	1664.43652	-604.79663	2306.19556	1662.34546	-637.31873	1851.81421	1662.02209	-660.78845	1349.40112	1661.94238	-690.07751	902.72205	1662.70544	-713.81268	454.63925	1664.04980	-1113.31812	2807.26465	1664.62598	-1140.54395	2355.66846	1658.49072	-1171.18799	1905.53748	1653.17468	-1198.53967	1404.15845	1653.04675	-1226.99060	952.70911	1658.79407	-1244.48804	506.90375	1667.44592	
9	0.040	-575.92810	2755.37354	1664.44019	-604.82422	2306.16968	1662.32556	-637.30902	1851.81958	1662.00378	-660.76923	1349.38977	1661.93787	-690.07495	902.69867	1662.71179	-713.81628	454.64597	1664.04724	-1113.29285	2807.26074	1664.62122	-1140.54932	2355.67334	1658.47241	-1171.18640	1905.54480	1653.16626	-1198.54590	1404.15271	1653.03467	-1226.98291	952.70618	1658.79126	-1244.51062	506.91479	1667.46838	
10	0.045	-575.93054	2755.37939	1664.42847	-604.81042	2306.19556	1662.34436	-637.32068	1851.81873	1662.00366	-660.79022	1349.36572	1661.95056	-690.07599	902.70538	1662.69165	-713.80060	454.64716	1664.04834	-1113.34265	2807.26196	1664.58606	-1140.57715	2355.66699	1658.47339	-1171.18103	1905.54297	1653.15430	-1198.54749	1404.12109	1653.02026	-1226.96838	952.72711	1658.77344	-1244.50989	506.89349	1667.44922	
11	0.050	-575.92432	2755.37671	1664.42407	-604.81378	2306.19800	1662.33032	-637.31366	1851.83350	1662.00232	-660.77789	1349.38025	1661.92749	-690.08179	902.69366	1662.69348	-713.81628	454.64075	1664.04456	-1113.32629	2807.26172	1664.62256	-1140.55652	2355.64771	1658.49182	-1171.17322	1905.52429	1653.14160	-1198.54407	1404.12622	1653.02209	-1226.97253	952.71344	1658.77319	-1244.50293	506.91534	1667.44141	
12	0.055	-575.93512	2755.38013	1664.44116	-604.84680	2306.18481	1662.34229	-637.32770	1851.83801	1662.00610	-660.77515	1349.38867	1661.93091	-690.08984	902.69379	1662.70593	-713.80969	454.63031	1664.04004	-1113.32471	2807.24268	1664.62366	-1140.51184	2355.63013	1658.46973	-1171.17017	1905.51416	1653.16541	-1198.54785	1404.12024	1653.04321	-1227.00403	952.70325	1658.76941	-1244.49072	506.91379	1667.44006	
13	0.060	-575.93018	2755.35718	1664.44385	-604.79321	2306.19165	1662.32654	-637.33655	1851.84399	1662.00391	-660.80737	1349.27258	1661.93188	-690.09479	902.70618	1662.68945	-713.81628	454.64700	1664.06091	-1113.34814	2807.25317	1664.62732	-1140.53943	2355.66089	1658.49109	-1171.16895	1905.54749	1653.17285	-1198.45752	1404.50696	1652.47681	-1227.00171	952.72473	1658.78845	-1244.49963	506.90787	1667.45129	
14	0.065	-575.94281	2755.36572	1664.42529	-604.82550	2306.19287	1662.36145	-637.34277	1851.82959	1661.99634	-660.78998	1349.39453	1661.95544	-690.06183	902.67645	1662.69763	-713.81232	454.62128	1664.04456	-1113.33081	2807.26172	1664.62073	-1140.57568	2355.68311	1658.48083	-1171.18042	1905.54382	1653.17004	-1198.45935	1404.49780	1652.49060	-1226.97192	952.71997	1658.79810	-1244.50256	506.90897	1667.46179	
15	0.070	-575.93561	2755.38110	1664.45203	-604.82153	2306.19482	1662.33569	-637.31000	1851.82092	1662.01331	-660.79553	1349.24402	1661.93457	-690.05475	902.70465	1662.69202	-713.81726	454.64850	1664.03284	-1113.31946	2807.26099	1664.61523	-1140.56604	2355.66797	1658.47070	-1171.19592	1905.54382	1653.16724	-1198.44446	1404.51245	1652.47424	-1226.97705	952.71124	1658.76965	-1244.50781	506.91199	1667.44238	
16	0.075	-575.94165	2755.37549	1664.42700	-604.82483	2306.16577	1662.32593	-637.29608	1851.82349	1661.99890	-660.82184	1349.28064	1661.92322	-690.08746	902.71979	1662.68274	-713.81012	454.62817	1664.03296	-1113.32190	2807.27124	1664.61108	-1140.55481	2355.64087	1658.47192	-1171.17834	1905.53931	1653.14697	-1198.46912	1404.49744	1652.47107	-1226.98633	952.70343	1658.76685	-1244.50256	506.88779	1667.43774	
17	0.080	-575.92560	2755.37305	1664.41699	-604.82391	2306.19214	1662.32727	-637.29700	1851.79297	1662.00085	-660.78107	1349.40356	1661.93030	-690.10358	902.67676	1662.69946	-713.81409	454.63599	1664.04675	-1113.30688	2807.24121	1664.61182	-1140.53333	2355.66504	1658.46814	-1171.16113	1905.53137	1653.13757	-1198.46130	1404.54761	1652.46887	-1226.99036	952.70605	1658.76660	-1244.50830	506.91852	1667.43628	
18	0.085	-575.92889	2755.37207	1664.42969	-604.82330	2306.18750	1662.32959	-637.31024	1851.78113	1662.00732	-660.82495	1349.26086	1661.92798	-690.07831	902.65002	1662.68433	-713.81091	454.64066	1664.04163	-1113.31238	2807.27930	1664.61328	-1140.55847	2355.66650	1658.46570	-1171.16589	1905.53345	1653.15552	-1198.45911	1404.51465	1652.47119	-1226.98022	952.71539	1658.77002	-1244.51099	506.89932	1667.43335	
19	0.090	-575.93011	2755.38062	1664.44324	-604.84448	2306.16553	1662.33838	-637.35382	1851.81165	1662.00244	-660.78821	1349.26563	1661.94141	-690.08734	902.69476	1662.69641	-713.82703	454.64078	1664.04724	-1113.31519	2807.24707	1664.61731	-1140.53345	2355.65576	1658.47070	-1171.17151	1905.56299	1653.15430	-1198.45398	1404.50439	1652.48132	-1226.97974	952.71582	1658.78638	-1244.50500	506.92929	1667.45740	
20	0.095	-575.92426	2755.36621	1664.43311	-604.81116	2306.17285	1662.35059	-637.29541	1851.79639	1662.01660	-660.79010	1349.39648	1661.93591	-690.07837	902.70844	1662.70862	-713.82245	454.61606	1664.04749	-1113.31665	2807.26831	1664.62024	-1140.56689	2355.65869	1658.47241	-1171.16138	1905.52527	1653.15759	-1198.51550	1404.12683	1653.04358	-1226.98315	952.71393	1658.78894	-1244.51672	506.91754	1667.46265	
21	0.100	-575.94647	2755.37061	1664.42957	-604.81238	2306.16650	1662.34644	-637.31476	1851.79590	1661.99927	-660.79633	1349.28992	1661.93262	-690.08405	902.70990	1662.68567	-713.80078	454.63510	1664.04675	-1113.31274	2807.26099	1664.61584	-1140.52979	2355.68652	1658.46790	-1171.19153	1905.53967	1653.16199	-1198.44946	1404.50085	1652.48486	-1226.99194	952.73651	1658.77490	-1244.50354	506.91074	1667.45251	
22	0.105	-575.93689	2755.36255	1664.41772	-604.84167	2306.18677	1662.34424	-637.32422	1851.81677	1662.01343	-660.78912	1349.28125	1661.92676	-690.05170	902.70142	1662.68835	-713.79523	454.61102	1664.04980	-1113.32373	2807.26660	1664.61523	-1140.53186	2355.65991	1658.48889	-1171.16870	1905.52722	1653.14734	-1198.45813	1404.52795	1652.46643	-1226.97778	952.70514	1658.77576	-1244.50110	506.89728	1667.46033	
23	0.110	-575.92175	2755.37451	1664.42725	-604.81836	2306.17944	1662.32324	-637.31122	1851.81519	1661.99500	-660.79218	1349.27673	1661.94312	-690.07172	902.69647	1662.69507	-713.82007	454.61282	1664.04688	-1113.26331	2807.28760	1665.10095	-1140.54077	2355.66870	1658.47095	-1171.17664	1905.54443	1653.15454	-1198.47058	1404.51880	1652.45935	-1226.96875	952.72998	1658.76868	-1244.50525	506.89474	1667.45325	
24	0.115	-575.94067	2755.36890	1664.42810	-604.83038	2306.17383	1662.33228	-637.29065	1851.80481	1662.01575	-660.79425	1349.27893	1661.94165	-690.07477	902.70392	1662.70178	-713.81439	454.62836	1664.05139	-1113.33264	2807.25562	1664.61279	-1140.55103	2355.64258	1658.46399	-1171.18945	1905.55847	1653.14636	-1198.46069	1404.51074	1652.46094	-1226.98438	952.72559	1658.77295	-1244.51270	506.91309	1667.44897	
25	0.120	-575.93518	2755.37842	1664.42041	-604.78339	2306.20044	1662.33765	-637.32037	1851.83594	1661.98914	-660.77814	1349.39575	1661.93689	-690.08087	902.74072	1662.70911	-713.81458	454.63446	1664.04956	-1113.31531	2807.26685	1664.62231	-1140.53284	2355.66577	1658.47131	-1171.18079	1905.55359	1653.14783	-1198.53650	1404.11255	1653.02649	-1226.97119	952.72491	1658.76929	-1244.51428	506.90701	1667.45020	
26	0.125	-575.93671	2755.37329	1664.42432	-604.86285	2306.18896	1662.35437	-637.31964	1851.79907	1662.00781	-660.79352	1349.23877	1661.92163	-690.07214	902.74249	1662.69873	-713.81616	454.63431	1664.05005	-1113.31348	2807.24414	1664.62354	-1140.53406	2355.65039	1658.47913	-1171.18066	1905.54504	1653.16333	-1198.44824	1404.51086	1652.48743	-1226.97021	952.71417	1658.77734	-1244.50000	506.88193	1667.45776	
